<?xml version="1.0" encoding="UTF-8"?>
<svg xmlns="http://www.w3.org/2000/svg" xmlns:xlink="http://www.w3.org/1999/xlink" viewBox="0 0 32 32" width="32px" height="32px">
<g id="surface10262192">
<path style=" stroke:none;fill-rule:nonzero;fill:rgb(19.215687%,38.82353%,25.882354%);fill-opacity:1;" d="M 21 4 L 25 4 L 25 8 L 21 8 Z M 25 22.753906 C 25 24.105469 24.683594 28.554688 20.757812 29.902344 L 17 28 C 19.804688 26.777344 21 24.800781 21 22.753906 C 21 19.925781 21 11 21 11 L 25 11.003906 C 25 11.003906 25 19.714844 25 22.753906 Z M 14 4 L 14 10.300781 C 13.53125 10.109375 12.519531 10.074219 12.023438 10.074219 C 8.273438 10.074219 5 12.011719 5 17 C 5 22.96875 9.503906 23.996094 12.648438 23.996094 C 13.890625 23.996094 16.648438 23.875 18 23.484375 L 18 4 Z M 12.609375 20.664062 C 10.839844 20.664062 9 19.863281 9 17 C 9 14.136719 10.839844 13.53125 12.609375 13.53125 C 13.039062 13.53125 13.527344 13.613281 14 13.71875 L 14 20.476562 C 13.527344 20.585938 13.042969 20.664062 12.609375 20.664062 Z M 12.609375 20.664062 "/>
</g>
</svg>
